<?xml version="1.0" encoding="utf-8"?>
<!-- Generator: Adobe Illustrator 27.8.1, SVG Export Plug-In . SVG Version: 6.00 Build 0)  -->
<svg version="1.1" id="圖層_1" xmlns="http://www.w3.org/2000/svg" xmlns:xlink="http://www.w3.org/1999/xlink" x="0px" y="0px"
	 viewBox="0 0 238.1 85" style="enable-background:new 0 0 238.1 85;" xml:space="preserve">
<style type="text/css">
	.st0{fill:#183065;}
	.st1{fill:#29AA9D;}
</style>
<g>
	<polygon class="st0" points="16.7,19.3 13.1,38 37.8,38 29.6,79.7 47.9,79.7 59.1,19.3 	"/>
	<path class="st0" d="M101.4,27.5c-7.2,0-14.2,3-19.1,8.3c-5,5.3-7.5,12.3-7.1,19.6c0.4,6.4,3.2,12.5,7.9,17.1
		c4.7,4.6,10.8,7.2,17.2,7.5c0.4,0,0.7,0,1.1,0c4.6,0,9-1.2,12.9-3.4c0.8,1.7,2.6,2.8,4.5,2.8h8.8V51.6
		C127.6,39.2,114.8,27.5,101.4,27.5z M113.8,53.7c0,6.8-5.6,12.4-12.4,12.4c-6.8,0-12.4-5.6-12.4-12.4c0-6.8,5.6-12.4,12.4-12.4
		C108.2,41.3,113.8,46.9,113.8,53.7z"/>
	<polygon class="st1" points="56.2,4.9 98.2,4.9 94.1,24.1 71.2,24.1 62.9,67.3 44.2,67.3 	"/>
	<path class="st0" d="M218.7,64.9L218.7,64.9L218.7,64.9c-1,0.8-2.2,1.4-3.7,1.8c-1.5,0.5-3.1,0.7-4.8,0.7c-2.7,0-5.2-0.6-7.2-1.8
		c-2.1-1.2-3.7-2.8-4.8-4.8c-1.1-2.1-1.7-4.3-1.7-6.8c0-1.8,0.3-3.5,1-5.1c1.9-3.2,3.1-4.9,5.2-6.3l0,0l0,0c0.5-0.3,1-0.6,1.7-0.9
		c0,0,0,0,0,0c0,0,0,0,0,0c1.5-0.6,3.3-1,5.3-1h0.3c2.2,0,4.4,0.5,6.3,1.2c0.5,0.2,1,0.4,1.4,0.7c0,0,0,0,0,0c0.1,0,0.1,0.1,0.2,0.1
		c0,0,0.1,0,0.1,0.1c0.1,0.1,0.3,0.2,0.4,0.3c0,0,0.1,0.1,0.1,0.1c0,0,0,0,0.1,0l0.3,0.2l0,0l0.1,0l0.5-0.8c0.1-0.2,0.2-0.4,0.3-0.5
		c0.1-0.3,0.3-0.5,0.5-0.8l4.7-7.9c0,0-0.8-0.8-1.8-1.3c-0.8-0.5-1.7-1-2.7-1.5l0,0l0,0c0,0,0,0,0,0c0,0-0.1,0-0.1-0.1l-0.3-0.1
		c-0.4-0.2-0.8-0.3-1.2-0.5c-0.5-0.2-1-0.4-1.5-0.5c0,0-0.1,0-0.1,0c-0.1,0-0.1,0-0.2-0.1c0,0-0.1,0-0.1,0c-2.9-0.9-5.9-1.4-8.9-1.4
		c-2.4,0-4.8,0.3-7.1,0.9c-0.3,0.1-0.5,0.1-0.7,0.2c-0.1,0-0.3,0.1-0.4,0.1c-0.4,0.1-0.8,0.2-1.1,0.4c-0.4,0.1-0.9,0.3-1.3,0.5
		l-0.1,0c-0.1,0-0.2,0.1-0.3,0.1c-0.2,0.1-0.4,0.2-0.7,0.3c0,0-0.1,0-0.1,0.1c-0.5,0.2-0.9,0.4-1.3,0.7c-2.5,1.3-4.7,2.9-6.6,4.7
		c-0.9,0.9-1.7,1.8-2.4,2.7l-0.1,0.1l0,0c0,0,0,0,0,0c0,0,0,0,0,0c0,0,0,0-0.1,0.1c-1.5,1.9-3.5,4.3-5,7c-0.6,1-1.2,2-1.7,3
		c-2.2,3.9-4.5,8-7.2,11.7c-0.9,1.3-2.1,2.8-3.5,4c-2.1,1.6-4.8,2.4-7.8,2.4c-0.5,0-1,0-1.5-0.1l0,0c0,0,0,0-0.1,0l0,0l0,0
		c-0.7-0.1-1.4-0.2-2.1-0.3c-0.5-0.2-1.1-0.5-1.6-0.8c-2.1-1.2-3.7-2.8-4.8-4.8c-1.1-2.1-1.7-4.3-1.7-6.8c0-2.3,0.5-4.4,1.6-6.5
		c1.1-2,2.6-3.7,4.6-5c2-1.3,4.5-1.9,7.4-1.9c3.4,0,6.1,0.8,8.4,2.4c0,0,0.1,0.1,0.1,0.1c0,0,0.1,0,0.1,0.1l0.4,0.3l5.3-10.5
		l-0.2-0.2c-1.8-1.4-4.2-2.6-7.1-3.5c-2.9-0.9-6-1.3-9.1-1.3c-3.9,0-7.5,0.7-10.8,2.1c-3.3,1.4-6.3,3.3-8.7,5.7
		c-1.3,1.3-2.5,2.7-3.5,4.2l0,0c0,0,0,0,0,0l0,0c-0.7,0.9-1.3,1.9-1.8,3l0,0.1l0,0c-0.7,1.4-1.2,2.9-1.6,4.5
		c-0.6,2.1-0.9,4.3-0.9,6.6c0,3.5,0.7,6.8,2,9.8c0,0.1,0.1,0.2,0.1,0.3c0,0,0,0,0,0c0,0,0,0,0,0c0.5,1,1,2,1.6,3
		c1.2,1.9,2.6,3.7,4.3,5.3c2.5,2.4,5.5,4.2,8.8,5.6c0.3,0.1,0.7,0.3,1,0.4c0,0,0.1,0,0.1,0c0.1,0,0.1,0,0.2,0.1
		c2.4,0.9,4.7,1.3,6.9,1.4c0,0,0.1,0,0.1,0c0.7,0.1,1.5,0.1,2.2,0.1c0.1,0,0.2,0,0.2,0c0.2,0,0.3,0,0.5,0c1.5,0,2.7-0.1,4-0.3
		c0.7-0.1,1.5-0.3,2.2-0.5c0,0,0.1,0,0.1,0c0.1,0,0.2,0,0.3-0.1c0.6-0.1,1.2-0.3,1.8-0.5c1.1-0.4,2.1-0.7,3.1-1.2
		c0.1-0.1,0.2-0.1,0.3-0.2c4.3-1.9,8.2-5.1,11.9-9.6c1.1,1.7,2.4,3.3,4,4.7c2.5,2.4,5.5,4.3,8.7,5.6c3.3,1.3,6.8,2,10.6,2
		c3.2,0,6.3-0.5,9.1-1.4c2.9-0.9,5.3-2.1,7.1-3.5l0.3-0.2L219,64.6L218.7,64.9z"/>
</g>
</svg>
